<svg viewBox="0 0 48 49" fill="none" xmlns="http://www.w3.org/2000/svg">
<g clip-path="url(#clip0)">
<path d="M38 0.98291H10C4.478 0.98291 0 5.46091 0 10.9829V38.9829C0 44.5049 4.478 48.9829 10 48.9829H38C43.524 48.9829 48 44.5049 48 38.9829V10.9829C48 5.46091 43.524 0.98291 38 0.98291ZM16 38.9829H10V16.9829H16V38.9829ZM13 14.4469C11.068 14.4469 9.5 12.8669 9.5 10.9189C9.5 8.97091 11.068 7.39091 13 7.39091C14.932 7.39091 16.5 8.97091 16.5 10.9189C16.5 12.8669 14.934 14.4469 13 14.4469ZM40 38.9829H34V27.7749C34 21.0389 26 21.5489 26 27.7749V38.9829H20V16.9829H26V20.5129C28.792 15.3409 40 14.9589 40 25.4649V38.9829Z" fill="#2867B2"/>
</g>
<defs>
<clipPath id="clip0">
<rect width="48" height="48" fill="white" transform="translate(0 0.98291)"/>
</clipPath>
</defs>
</svg>
