<svg viewBox="0 0 48 49" fill="none" xmlns="http://www.w3.org/2000/svg">
<g clip-path="url(#clip0)">
<path d="M24 0.98291C10.748 0.98291 0 11.7289 0 24.9829C0 35.5869 6.876 44.5829 16.414 47.7569C17.612 47.9789 18 47.2349 18 46.6029V42.1349C11.324 43.5869 9.934 39.3029 9.934 39.3029C8.842 36.5289 7.268 35.7909 7.268 35.7909C5.09 34.3009 7.434 34.3329 7.434 34.3329C9.844 34.5009 11.112 36.8069 11.112 36.8069C13.252 40.4749 16.726 39.4149 18.096 38.8009C18.31 37.2509 18.932 36.1909 19.62 35.5929C14.29 34.9829 8.686 32.9249 8.686 23.7309C8.686 21.1089 9.624 18.9689 11.158 17.2889C10.91 16.6829 10.088 14.2409 11.392 10.9369C11.392 10.9369 13.408 10.2929 17.994 13.3969C19.908 12.8649 21.96 12.5989 24 12.5889C26.04 12.5989 28.094 12.8649 30.012 13.3969C34.594 10.2929 36.606 10.9369 36.606 10.9369C37.912 14.2429 37.09 16.6849 36.842 17.2889C38.382 18.9689 39.312 21.1109 39.312 23.7309C39.312 32.9489 33.698 34.9789 28.354 35.5729C29.214 36.3169 30 37.7769 30 40.0169V46.6029C30 47.2409 30.384 47.9909 31.602 47.7549C41.132 44.5769 48 35.5829 48 24.9829C48 11.7289 37.254 0.98291 24 0.98291Z" fill="#211F1F"/>
</g>
<defs>
<clipPath id="clip0">
<rect width="48" height="48" fill="white" transform="translate(0 0.98291)"/>
</clipPath>
</defs>
</svg>
