<svg viewBox="0 0 48 49" fill="none" xmlns="http://www.w3.org/2000/svg">
<g clip-path="url(#clip0)">
<path d="M38 0.98291H10C4.478 0.98291 0 5.46091 0 10.9829V38.9829C0 44.5049 4.478 48.9829 10 48.9829H38C43.524 48.9829 48 44.5049 48 38.9829V10.9829C48 5.46091 43.524 0.98291 38 0.98291ZM37.722 19.4569C38.14 28.6909 31.254 38.9869 19.062 38.9869C15.354 38.9869 11.904 37.9009 8.998 36.0369C12.482 36.4469 15.958 35.4809 18.718 33.3189C15.844 33.2649 13.42 31.3669 12.586 28.7589C13.616 28.9549 14.628 28.8969 15.55 28.6469C12.392 28.0129 10.214 25.1689 10.284 22.1269C11.168 22.6189 12.182 22.9149 13.256 22.9489C10.334 20.9949 9.506 17.1349 11.224 14.1829C14.462 18.1549 19.3 20.7689 24.756 21.0429C23.798 16.9369 26.916 12.9829 31.154 12.9829C33.04 12.9829 34.748 13.7789 35.944 15.0569C37.44 14.7629 38.846 14.2169 40.116 13.4649C39.624 14.9989 38.584 16.2849 37.23 17.0969C38.558 16.9369 39.824 16.5849 41 16.0629C40.122 17.3749 39.008 18.5309 37.722 19.4569Z" fill="#1DA1F2"/>
</g>
<defs>
<clipPath id="clip0">
<rect width="48" height="48" fill="white" transform="translate(0 0.98291)"/>
</clipPath>
</defs>
</svg>
