<svg viewBox="0 0 48 49" fill="none" xmlns="http://www.w3.org/2000/svg"><g clip-path="url(#clip0)"><path d="M38 .983H10c-5.522 0-10 4.478-10 10v28c0 5.522 4.478 10 10 10h28c5.524 0 10-4.478 10-10v-28c0-5.522-4.476-10-10-10zm-.278 18.474c.418 9.234-6.468 19.53-18.66 19.53a18.573 18.573 0 01-10.064-2.95c3.484.41 6.96-.556 9.72-2.718a6.57 6.57 0 01-6.132-4.56 6.601 6.601 0 002.964-.112c-3.158-.634-5.336-3.478-5.266-6.52a6.532 6.532 0 002.972.822c-2.922-1.954-3.75-5.814-2.032-8.766a18.64 18.64 0 0013.532 6.86c-.958-4.106 2.16-8.06 6.398-8.06 1.886 0 3.594.796 4.79 2.074a13.166 13.166 0 004.172-1.592 6.592 6.592 0 01-2.886 3.632A13.156 13.156 0 0041 16.063a13.32 13.32 0 01-3.278 3.394z" fill="#1DA1F2"/></g><defs><clipPath id="clip0"><path fill="#fff" transform="translate(0 .983)" d="M0 0h48v48H0z"/></clipPath></defs></svg>