<svg style="transform:scale(0.8);" viewBox="0 0 48 49" fill="none" xmlns="http://www.w3.org/2000/svg"><g clip-path="url(#clip0)"><path d="M38 .983H10c-5.522 0-10 4.478-10 10v28c0 5.522 4.478 10 10 10h28c5.524 0 10-4.478 10-10v-28c0-5.522-4.476-10-10-10zm-22 38h-6v-22h6v22zm-3-24.536c-1.932 0-3.5-1.58-3.5-3.528S11.068 7.39 13 7.39s3.5 1.58 3.5 3.528-1.566 3.528-3.5 3.528zm27 24.536h-6V27.775c0-6.736-8-6.226-8 0v11.208h-6v-22h6v3.53c2.792-5.172 14-5.554 14 4.952v13.518z" fill="#2867B2"/></g><defs><clipPath id="clip0"><path fill="#fff" transform="translate(0 .983)" d="M0 0h48v48H0z"/></clipPath></defs></svg>
