<svg viewBox="0 0 48 49" fill="none" xmlns="http://www.w3.org/2000/svg" style="transform:scale(0.8);"><g clip-path="url(#clip0)"><path d="M24 .983c-13.252 0-24 10.746-24 24 0 10.604 6.876 19.6 16.414 22.774 1.198.222 1.586-.522 1.586-1.154v-4.468c-6.676 1.452-8.066-2.832-8.066-2.832-1.092-2.774-2.666-3.512-2.666-3.512-2.178-1.49.166-1.458.166-1.458 2.41.168 3.678 2.474 3.678 2.474 2.14 3.668 5.614 2.608 6.984 1.994.214-1.55.836-2.61 1.524-3.208-5.33-.61-10.934-2.668-10.934-11.862 0-2.622.938-4.762 2.472-6.442-.248-.606-1.07-3.048.234-6.352 0 0 2.016-.644 6.602 2.46 1.914-.532 3.966-.798 6.006-.808 2.04.01 4.094.276 6.012.808 4.582-3.104 6.594-2.46 6.594-2.46 1.306 3.306.484 5.748.236 6.352 1.54 1.68 2.47 3.822 2.47 6.442 0 9.218-5.614 11.248-10.958 11.842.86.744 1.646 2.204 1.646 4.444v6.586c0 .638.384 1.388 1.602 1.152C41.132 44.577 48 35.583 48 24.983c0-13.254-10.746-24-24-24z" fill="#211F1F"/></g><defs><clipPath id="clip0"><path fill="#fff" transform="translate(0 .983)" d="M0 0h48v48H0z"/></clipPath></defs></svg>
